<svg width="24" height="24" viewBox="0 0 24 24" fill="none" xmlns="http://www.w3.org/2000/svg">
<path fill-rule="evenodd" clip-rule="evenodd" d="M8.92308 2C8.71906 2 8.52341 2.08104 8.37915 2.2253C8.23489 2.36956 8.15385 2.56522 8.15385 2.76923C8.15385 2.97324 8.23489 3.1689 8.37915 3.31316C8.52341 3.45742 8.71906 3.53846 8.92308 3.53846H20.4615V20.4615H8.92308C8.71906 20.4615 8.52341 20.5426 8.37915 20.6868C8.23489 20.8311 8.15385 21.0268 8.15385 21.2308C8.15385 21.4348 8.23489 21.6304 8.37915 21.7747C8.52341 21.919 8.71906 22 8.92308 22H20.4615C20.8696 22 21.2609 21.8379 21.5494 21.5494C21.8379 21.2609 22 20.8696 22 20.4615V3.53846C22 3.13044 21.8379 2.73912 21.5494 2.4506C21.2609 2.16209 20.8696 2 20.4615 2H8.92308ZM12.16 7.99385C12.0885 7.92233 12.0036 7.86559 11.9101 7.82689C11.8167 7.78818 11.7165 7.76826 11.6154 7.76826C11.5142 7.76826 11.4141 7.78818 11.3206 7.82689C11.2272 7.86559 11.1423 7.92233 11.0708 7.99385C10.9992 8.06537 10.9425 8.15027 10.9038 8.24372C10.8651 8.33716 10.8452 8.43732 10.8452 8.53846C10.8452 8.63961 10.8651 8.73976 10.9038 8.83321C10.9425 8.92665 10.9992 9.01156 11.0708 9.08308L13.22 11.2308H2.76923C2.56522 11.2308 2.36956 11.3118 2.2253 11.4561C2.08104 11.6003 2 11.796 2 12C2 12.204 2.08104 12.3997 2.2253 12.5439C2.36956 12.6882 2.56522 12.7692 2.76923 12.7692H13.22L11.0708 14.9169C10.9263 15.0614 10.8452 15.2573 10.8452 15.4615C10.8452 15.6658 10.9263 15.8617 11.0708 16.0062C11.2152 16.1506 11.4111 16.2317 11.6154 16.2317C11.8197 16.2317 12.0156 16.1506 12.16 16.0062L15.6215 12.5446C15.6932 12.4732 15.75 12.3883 15.7888 12.2948C15.8276 12.2014 15.8475 12.1012 15.8475 12C15.8475 11.8988 15.8276 11.7986 15.7888 11.7052C15.75 11.6117 15.6932 11.5268 15.6215 11.4554L12.16 7.99385Z" fill="#FFFFFF"/>
</svg>
