<svg width="24" height="24" viewBox="0 0 24 24" fill="none" xmlns="http://www.w3.org/2000/svg">
<path d="M12 21.0425C11.8619 21.042 11.7278 20.9959 11.6187 20.9112C8.14313 18.2108 5.74899 15.8854 4.07372 13.5913C1.93588 10.6595 1.4483 7.95286 2.62349 5.54622C3.46113 3.82719 5.86776 2.42072 8.68072 3.2396C10.0219 3.627 11.192 4.45779 12 5.59623C12.808 4.45779 13.9781 3.627 15.3193 3.2396C18.126 2.43322 20.5389 3.82719 21.3765 5.54622C22.5517 7.95286 22.0641 10.6595 19.9263 13.5913C18.251 15.8854 15.8569 18.2108 12.3813 20.9112C12.2722 20.9959 12.1381 21.042 12 21.0425ZM7.08046 4.25851C6.41113 4.23246 5.74735 4.38919 5.16036 4.71187C4.57338 5.03454 4.08535 5.51099 3.74867 6.09006C2.77977 8.07788 3.21734 10.2907 5.08639 12.8474C7.07269 15.4094 9.39859 17.6891 12 19.6235C14.601 17.691 16.9269 15.4135 18.9136 12.8536C20.7889 10.2907 21.2202 8.07788 20.2513 6.09631C19.6262 4.84611 17.7509 3.8522 15.6631 4.43979C14.9936 4.63764 14.373 4.97345 13.8412 5.42562C13.3093 5.87779 12.8781 6.43631 12.5751 7.06521C12.528 7.17986 12.4479 7.27793 12.3449 7.34694C12.242 7.41595 12.1208 7.4528 11.9969 7.4528C11.8729 7.4528 11.7518 7.41595 11.6488 7.34694C11.5459 7.27793 11.4658 7.17986 11.4187 7.06521C11.118 6.43473 10.6874 5.87492 10.1553 5.42246C9.62309 4.97001 9.0013 4.63514 8.33066 4.43979C7.92433 4.32177 7.50358 4.26077 7.08046 4.25851Z" fill="#ed7127" stroke="#ed7127" stroke-width="0.5"/>
</svg>
