<svg xmlns="http://www.w3.org/2000/svg" width="32" height="32" viewBox="0 0 32 32">
    <g fill="#000" fill-rule="evenodd">
        <path d="M31.16 5.515a7.82 7.82 0 0 0-1.843-2.832A7.82 7.82 0 0 0 26.485.841C25.471.445 24.297.173 22.603.099 20.896.025 20.353 0 16 0c-4.352 0-4.896.012-6.603.099C7.691.173 6.53.445 5.515.84a7.82 7.82 0 0 0-2.832 1.842A7.82 7.82 0 0 0 .841 5.515C.445 6.529.173 7.703.099 9.397.025 11.104 0 11.647 0 16c0 4.352.012 4.896.099 6.603.074 1.706.346 2.868.742 3.882a7.82 7.82 0 0 0 1.842 2.832 7.82 7.82 0 0 0 2.832 1.842c1.014.396 2.188.668 3.882.742 1.707.074 2.25.099 6.603.099 4.352 0 4.896-.012 6.603-.099 1.706-.074 2.868-.346 3.882-.742a7.82 7.82 0 0 0 2.832-1.842 7.82 7.82 0 0 0 1.842-2.832c.396-1.014.668-2.188.742-3.882.074-1.707.099-2.25.099-6.603 0-4.352-.012-4.896-.099-6.603-.074-1.706-.346-2.868-.742-3.882zm-2.14 16.952c-.074 1.558-.334 2.41-.556 2.967a4.956 4.956 0 0 1-1.2 1.843 5.01 5.01 0 0 1-1.842 1.199c-.569.223-1.41.482-2.968.556-1.694.075-2.188.1-6.466.1-4.279 0-4.786-.013-6.467-.1-1.558-.074-2.411-.333-2.968-.556a4.956 4.956 0 0 1-1.842-1.2 5.01 5.01 0 0 1-1.2-1.842c-.222-.568-.482-1.41-.556-2.967-.074-1.694-.099-2.201-.099-6.467s.013-4.785.1-6.467c.073-1.558.333-2.41.556-2.967A4.956 4.956 0 0 1 4.71 4.723a5.01 5.01 0 0 1 1.842-1.199c.57-.223 1.41-.482 2.968-.556 1.694-.075 2.2-.1 6.467-.1 4.265 0 4.785.013 6.466.1 1.558.074 2.412.333 2.968.556a4.956 4.956 0 0 1 1.842 1.2 5.01 5.01 0 0 1 1.2 1.842c.222.568.482 1.41.556 2.967.074 1.694.099 2.201.099 6.467s-.025 4.785-.099 6.467z"/>
        <path d="M16 8c-4.415 0-8 3.585-8 8s3.585 8 8 8 8-3.585 8-8-3.585-8-8-8zm0 13.197A5.198 5.198 0 0 1 10.803 16 5.198 5.198 0 0 1 16 10.803 5.19 5.19 0 0 1 21.197 16 5.206 5.206 0 0 1 16 21.197z"/>
        <circle cx="25" cy="8" r="2"/>
    </g>
</svg>
